<svg width="1920" height="1440" viewBox="0 0 1920 1440" fill="none" xmlns="http://www.w3.org/2000/svg">
<g clip-path="url(#clip0_2_2)">
<rect width="1920" height="941" fill="url(#paint0_linear_2_2)"/>
<path d="M0 1011H1920V1440H0V1011Z" fill="#061036"/>
<path d="M1887.99 420.07C1873.69 420.31 1859.53 422.59 1845.43 424.81C1831.49 426.92 1818.27 431.96 1804.96 436.39C1795.75 439.69 1786.58 443.14 1777.68 447.21C1767.65 451.74 1758.57 458.01 1749.19 463.67C1733.25 473.3 1718.8 485.12 1704.48 496.97C1689.23 510.22 1673.64 523.08 1658.65 536.63C1646.22 546.67 1633.94 556.88 1621.98 567.46C1608 579.23 1593.15 589.92 1579.12 601.62C1571.65 607.55 1563.91 613.11 1556.21 618.71C1542.1 628.19 1527.5 636.94 1512.55 645.01C1503.6 650.09 1494.38 654.7 1485.68 660.21C1475.75 666.24 1466.28 673.03 1456.01 678.51C1442.79 686.3 1429.12 693.29 1415.15 699.64C1406.36 703.39 1397.19 706.15 1388.44 710C1371.75 716.74 1354.74 722.86 1338.8 731.29C1329.42 736.78 1320.01 742.31 1311.26 748.77C1284.24 770.02 1259.94 794.88 1230.6 813.1C1213.9 823.23 1195.86 830.83 1178.83 840.34C1164.18 848.54 1148.91 855.55 1133.37 861.88C1115.48 870.06 1097.07 877.2 1078.13 882.56C1066.94 885.22 1055.59 888.03 1044 887.69C1019.71 887.58 995.29 886.96 971.24 883.31C953.39 879.12 936.1 872.64 919.4 865.11C902.07 857.86 885.83 848.32 869.7 838.77C853.21 829.5 837.99 818.18 821.46 808.99C808.64 800.28 795.16 792.66 781.97 784.55C767.55 776.01 755.39 764.32 743.36 752.79C731.9 741.67 719.54 731.53 707.86 720.65C695.14 709.33 682.93 697.35 669 687.48C653.39 675.86 636.54 665.48 617.89 659.55C607.01 655.72 595.66 653.57 584.44 651C576.02 648.97 567.83 646.11 559.4 644.11C549.6 641.77 540.09 638.33 530.21 636.28C493.39 628.76 457.84 616.2 421.09 608.42C409.71 606.44 398.38 604.18 386.94 602.59C371.4 600.55 355.9 597.92 340.8 593.65C332.31 591.19 323.75 588.98 315.36 586.21C302.5 581.99 290.41 575.84 278.05 570.4C262.09 562.52 246.58 553.77 230.71 545.73C213.91 536.18 196.53 527.65 180.2 517.29C167.87 509.17 155.84 500.52 142.58 493.93C124.39 483.55 104.29 477.22 84.14 471.89C74.51 468.91 64.46 467.8 54.53 466.27C41.49 464.33 28.27 464.33 15.12 463.99C10.08 463.89 5.04 463.85 0 463.76V1025.98V1203.5H1920V1003.4V423.92C1909.45 421.86 1898.74 420.38 1887.99 420.07Z" fill="#061036" stroke="#061036"/>
<path d="M331.74 293.583C349.47 288.923 368.07 289.913 386.01 292.763C397.81 295.093 409.09 299.393 420.34 303.563C432.78 307.713 445.44 311.423 458.43 313.393C467.75 314.913 476.94 317.413 485.57 321.283C495.51 325.773 505.63 330.023 514.88 335.863C528.74 344.613 542.11 354.113 555.9 362.963C571.62 373.223 584.35 387.133 598.28 399.543C611.03 411.153 623.23 423.503 637.5 433.303C649.55 441.453 662.09 448.843 674.7 456.093C690.58 465.553 706.31 475.243 722.3 484.503C736.84 493.463 751.76 501.943 764.98 512.853C776.11 522.103 787.16 531.483 799.01 539.813C809.63 547.633 820.7 555.103 833.14 559.693C853.84 567.653 870.53 582.653 887.86 595.983C899.95 605.953 912.92 614.933 926.97 621.913C929.75 623.253 932.7 624.193 935.67 625.043C925.82 638.013 915.82 650.883 906.1 663.953C894.85 679.673 883.21 695.093 871.9 710.763C861.33 725.633 849.46 739.553 837.08 752.923C822.13 766.983 807.28 781.173 791.69 794.523C781.75 802.613 771.82 810.723 761.64 818.503C755.76 822.683 750.2 827.533 743.36 830.123C731.9 819.003 719.54 808.863 707.86 797.983C695.14 786.663 682.93 774.683 669 764.813C653.39 753.193 636.54 742.813 617.89 736.883C607.01 733.053 595.66 730.903 584.44 728.333C576.02 726.303 567.83 723.443 559.4 721.443C549.6 719.103 540.09 715.663 530.21 713.613C493.39 706.093 457.84 693.533 421.09 685.753C409.71 683.773 398.38 681.513 386.94 679.923C371.4 677.883 355.9 675.253 340.8 670.983C332.31 668.523 323.75 666.313 315.36 663.543C302.5 659.323 290.41 653.173 278.05 647.733C262.09 639.853 246.58 631.103 230.71 623.063C213.91 613.513 196.53 604.983 180.2 594.623C167.87 586.503 155.84 577.853 142.58 571.263C124.39 560.883 104.29 554.553 84.14 549.223C90.15 544.633 93.36 537.573 97.9 531.703C106.11 519.383 114.91 507.483 123.73 495.603C134.07 480.783 145.68 466.923 157.05 452.903C167.88 440.343 177.72 426.973 188.78 414.613C196.65 405.483 205.2 396.963 212.87 387.653C223.48 375.633 234.26 363.753 245.17 351.993C251.79 344.823 258.28 337.513 265.28 330.703C272.26 324.073 279.78 318.033 287.59 312.413C300.68 302.923 315.92 296.723 331.74 293.583Z" fill="#224194" stroke="#224194"/>
<path d="M549.71 324.503C560.82 323.353 571.87 325.703 582.86 327.013C590.5 327.943 598.21 328.403 605.76 329.953C615.5 331.743 624.64 335.673 634 338.783C650.54 344.443 666.81 351.493 680.89 362.013C686.77 368.133 693.53 373.323 699.39 379.473C716.14 396.813 733.39 414.153 754.17 426.693C763.36 433.243 772.39 440.043 782.19 445.683C795.6 454.303 810.93 459.173 824.62 467.263C834.04 472.353 843.61 477.873 854.38 479.423C862.85 480.663 871.44 480.973 880 481.143C896.71 481.083 911.4 472.213 926.58 466.423C936.21 462.853 945.31 458.053 954.28 453.093C964.56 447.313 973.14 438.913 983.73 433.633C993.59 428.163 1004.51 425.103 1014.85 420.703C1035.54 412.263 1058.16 410.093 1078.89 401.763C1089.06 397.853 1099.11 393.213 1110.05 391.903C1119.91 390.803 1129.37 387.723 1139.09 385.843C1147.85 384.123 1156.5 381.903 1165.26 380.143C1175.77 378.173 1186.33 376.473 1196.85 374.573C1209.51 372.133 1222.47 372.063 1235.22 370.253C1241.74 369.943 1248.3 370.413 1254.8 369.543C1259.23 368.963 1263.52 367.633 1267.91 366.793C1276.18 365.103 1284.8 365.373 1292.9 362.743C1299.79 360.523 1306.65 358.133 1313.74 356.583C1324.97 353.693 1336.62 353.303 1348.14 352.383C1358.36 352.103 1368.53 351.023 1378.72 350.223L1379.69 350.153C1389.21 350.063 1398.98 349.523 1408.15 352.643C1415.08 354.303 1420.94 358.563 1427.64 360.843C1412.51 366.043 1399.52 375.563 1385.98 383.813C1375.84 390.173 1365.83 396.813 1356.53 404.373C1350.92 408.843 1344.98 412.923 1339.74 417.843C1330.4 416.703 1321.38 413.993 1312.31 411.633C1291.71 406.243 1272.2 396.943 1251.05 393.683C1230.71 390.943 1209.76 389.803 1189.61 394.453C1172.41 397.833 1155.29 402.793 1140.25 412.023C1124.62 421.603 1109.98 432.873 1097.09 445.913C1083.77 459.273 1070.83 472.993 1057.75 486.573C1048.09 496.603 1038.98 507.143 1029.53 517.363C1017.4 529.913 1005.19 542.423 994.01 555.853C974.53 578.883 954.41 601.393 935.67 625.043C932.7 624.193 929.75 623.253 926.97 621.913C912.92 614.933 899.95 605.953 887.86 595.983C870.53 582.653 853.84 567.653 833.14 559.693C820.7 555.103 809.63 547.633 799.01 539.813C787.16 531.483 776.11 522.103 764.98 512.853C751.76 501.943 736.84 493.463 722.3 484.503C706.31 475.243 690.58 465.553 674.7 456.093C662.09 448.843 649.55 441.453 637.5 433.303C623.23 423.503 611.03 411.153 598.28 399.543C584.35 387.133 571.62 373.223 555.9 362.963C542.11 354.113 528.74 344.613 514.88 335.863C526.04 330.883 537.54 326.223 549.71 324.503Z" fill="#3D6BBC" stroke="#3D6BBC"/>
<path d="M1217.3 358.553C1208.81 354.813 1201.63 348.853 1193.71 344.133C1185.44 339.003 1177.66 333.043 1168.68 329.153C1157.65 324.313 1147.89 317.183 1138.59 309.633C1130.64 302.213 1120.4 298.253 1111.34 292.473C1102.04 286.563 1090.17 289.443 1080.67 284.133C1072.02 279.463 1063.44 274.093 1053.62 272.283C1045.75 270.933 1037.73 270.963 1029.81 270.093C1023.51 269.503 1017.1 269.183 1010.9 270.653C997.71 273.513 984.16 275.803 971.94 281.773C963.82 285.923 957.59 292.753 951.42 299.293C941.87 308.873 932.92 319.183 925.92 330.803C921.77 337.513 917.58 344.253 912.44 350.263C905.69 358.163 897.72 364.903 890.84 372.663C883.12 382.013 876.46 392.193 868.72 401.523C860.15 411.043 849.42 418.843 837.32 423.193C830.83 425.553 823.32 425.853 817.01 422.803C812.17 420.453 807.78 417.293 802.96 414.913C795.55 411.223 788.83 406.373 781.81 402.023C773.86 397.103 766.74 391.003 758.93 385.883C752.68 381.643 746.06 377.723 741.02 372.003C724.41 357.583 707.68 343.283 692.09 327.753C681.84 316.863 669.93 307.793 658.13 298.703C650.78 293.493 643.59 288.003 637.26 281.563C624.68 269.013 612.81 255.623 603.08 240.713C595.97 229.393 589.24 217.803 583.41 205.763C578.72 196.323 574.46 186.673 569.37 177.453C565.22 169.843 559.97 162.923 555.21 155.703C547.26 143.583 537.41 132.853 527.05 122.763C523.31 118.663 519.42 114.703 515.18 111.123C505.98 102.273 495.45 94.0129 482.76 91.0829C471.49 88.7629 459.83 88.5029 448.75 85.2229C437.22 82.2429 427.15 74.4429 414.95 74.0129C399.77 73.7929 385.36 80.3929 373.16 88.9629C360.03 99.1529 349.6 112.233 339.39 125.213C332.09 134.493 324.87 143.863 316.94 152.613C307 165.243 296.36 177.543 283.57 187.403C277.19 192.293 271.2 197.653 265.1 202.883C264.36 203.783 263.66 204.733 262.97 205.673C257.51 209.203 252.61 213.523 246.99 216.813C239.17 221.283 231.29 225.663 223.77 230.633C214.51 237.283 207.22 246.213 200.36 255.213C192.44 265.523 183.41 275.113 172.58 282.423C163.59 289.583 154.29 296.343 144.29 302.043C135.83 307.553 126.29 312.653 115.89 312.253C105.28 311.783 93.98 311.923 84.53 306.333C70.76 299.623 59.37 289.273 48.12 279.093C40.96 272.803 34.06 266.223 26.86 259.983C20.17 254.203 15.38 246.693 10.23 239.603C7 235.073 3.17 231.003 0 226.433L-69 111.123L-129 584C-123.96 584.09 10.08 541.223 15.12 541.323C21 540.943 26.97 541.843 32.79 540.793C38.57 538.313 42.8 533.373 47.57 529.423C55.54 522.043 63.82 515.003 71.78 507.613C85.84 494.903 96.91 479.393 109.64 465.453C116.54 458.683 123.1 451.593 129.84 444.663C139.45 434.793 150.29 426.183 161.77 418.583C168.45 413.943 174.68 408.633 181.81 404.643C192.06 398.803 202.18 392.673 212.87 387.653C223.48 375.633 234.26 363.753 245.17 351.993C251.79 344.823 258.28 337.513 265.28 330.703C272.26 324.073 279.78 318.033 287.59 312.413C300.68 302.923 315.92 296.723 331.74 293.583C349.47 288.923 368.07 289.913 386.01 292.763C397.81 295.093 409.09 299.393 420.34 303.563C432.78 307.713 445.44 311.423 458.43 313.393C467.75 314.913 476.94 317.413 485.57 321.283C495.51 325.773 505.63 330.023 514.88 335.863C526.04 330.883 537.54 326.223 549.71 324.503C560.82 323.353 571.87 325.703 582.86 327.013C590.5 327.943 598.21 328.403 605.76 329.953C615.5 331.743 624.64 335.673 634 338.783C650.54 344.443 666.81 351.493 680.89 362.013C686.77 368.133 693.53 373.323 699.39 379.473C716.14 396.813 733.39 414.153 754.17 426.693C763.36 433.243 772.39 440.043 782.19 445.683C795.6 454.303 810.93 459.173 824.62 467.263C834.04 472.353 843.61 477.873 854.38 479.423C862.85 480.663 871.44 480.973 880 481.143C896.71 481.083 911.4 472.213 926.58 466.423C936.21 462.853 945.31 458.053 954.28 453.093C964.56 447.313 973.14 438.913 983.73 433.633C993.59 428.163 1004.51 425.103 1014.85 420.703C1035.54 412.263 1058.16 410.093 1078.89 401.763C1089.06 397.853 1099.11 393.213 1110.05 391.903C1119.91 390.803 1129.37 387.723 1139.09 385.843C1147.85 384.123 1156.5 381.903 1165.26 380.143C1175.77 378.173 1186.33 376.473 1196.85 374.573C1209.51 372.133 1222.47 372.063 1235.22 370.253C1230.17 365.083 1223.85 361.463 1217.3 358.553Z" fill="#77ABE2" stroke="#77ABE2"/>
<path d="M1877.26 448.623C1859.16 444.733 1840.5 443.623 1822.77 438.063C1814.94 435.653 1806.95 433.673 1799.43 430.373C1790.05 426.273 1780.71 422.033 1771.81 416.973C1749.32 404.333 1726.1 392.783 1705.07 377.733C1697.06 372.083 1688.41 367.423 1679.68 362.993C1661.34 355.363 1642 349.543 1622.09 348.143C1610.41 347.093 1598.68 347.853 1587 347.043C1575.66 346.473 1564.57 343.883 1553.56 341.333C1542.31 338.293 1530.66 335.733 1518.94 336.833C1512.9 337.373 1506.88 338.143 1500.85 338.703C1494.72 339.653 1488.58 340.733 1482.65 342.583L1481.94 342.793C1463.87 348.913 1444.96 352.653 1427.64 360.843C1412.51 366.043 1399.52 375.563 1385.98 383.813C1375.84 390.173 1365.83 396.813 1356.53 404.373C1350.92 408.843 1344.98 412.923 1339.74 417.843C1358.61 420.383 1376.64 426.843 1393.76 434.993C1408.95 441.333 1422.51 450.743 1436.39 459.453C1452.46 470.383 1469.84 479.463 1484.7 492.123C1497 502.103 1508.1 513.433 1520.32 523.523C1539.3 540.483 1558.53 557.553 1580.89 570.013C1598.57 580.413 1616.56 590.273 1634.35 600.483C1642.64 604.623 1650.06 610.393 1658.65 613.963C1673.64 600.413 1689.23 587.553 1704.48 574.303C1718.8 562.453 1733.25 550.633 1749.19 541.003C1758.57 535.343 1767.65 529.073 1777.68 524.543C1786.58 520.473 1795.75 517.023 1804.96 513.723C1818.27 509.293 1831.49 504.253 1845.43 502.143C1859.53 499.923 1873.69 497.643 1887.99 497.403C1898.74 497.713 1978.95 538.943 1989.5 541.003L2026 482C2011.85 477.83 1891.71 451.623 1877.26 448.623Z" fill="#214093" stroke="#214093"/>
<path d="M1899.45 102.353C1892.48 98.543 1886.62 93.073 1879.84 88.973C1869.17 82.483 1859.87 73.843 1848.64 68.263C1837.36 63.463 1826.06 58.663 1814.61 54.273C1813.34 53.843 1812.08 53.433 1810.84 53.083C1801.65 51.393 1792.27 51.093 1782.96 51.003C1775.6 50.873 1769.15 55.003 1763.77 59.603C1755.67 66.213 1750.01 75.123 1743.45 83.143C1732.3 97.963 1720.92 112.623 1708.91 126.753C1700.61 136.373 1690.77 144.593 1683.19 154.843C1681.75 156.613 1680.28 158.363 1678.86 160.133C1668.39 173.233 1659.49 187.573 1648.2 200.023C1637.07 211.893 1624.5 222.403 1614.15 234.983C1605.64 246.713 1596.63 258.243 1585.26 267.373C1580.57 271.983 1575.55 276.233 1570.2 280.043C1563.69 284.763 1558.86 291.373 1552.28 296.003C1551.88 294.173 1543.84 309.123 1540.22 309.953C1537.56 311.203 1536 313.883 1534.23 316.103C1529.27 323.113 1523.78 329.733 1518.94 336.833C1530.66 335.733 1542.31 338.293 1553.56 341.333C1564.57 343.883 1575.66 346.473 1587 347.043C1598.68 347.853 1610.41 347.093 1622.09 348.143C1642 349.543 1661.34 355.363 1679.68 362.993C1688.41 367.423 1697.06 372.083 1705.07 377.733C1726.1 392.783 1749.32 404.333 1771.81 416.973C1780.71 422.033 1790.05 426.273 1799.43 430.373C1806.95 433.673 1814.94 435.653 1822.77 438.063C1840.5 443.623 1859.16 444.733 1877.26 448.623C1891.71 451.623 2003.85 499.83 2018 504V377.733V195L1920 117.593C1913.56 112.003 1907 106.423 1899.45 102.353Z" fill="#72A6E0" stroke="#72A6E0"/>
<path d="M181.81 404.643C192.06 398.803 202.18 392.673 212.87 387.653C205.2 396.963 196.65 405.483 188.78 414.613C177.72 426.973 167.88 440.343 157.05 452.903C145.68 466.923 134.07 480.783 123.73 495.603C114.91 507.483 106.11 519.383 97.9 531.703C93.36 537.573 90.15 544.633 84.14 549.223C74.51 546.243 64.46 545.133 54.53 543.603C41.49 541.663 28.27 541.663 15.12 541.323C21 540.943 26.97 541.843 32.79 540.793C38.57 538.313 42.8 533.373 47.57 529.423C55.54 522.043 63.82 515.003 71.78 507.613C85.84 494.903 96.91 479.393 109.64 465.453C116.54 458.683 123.1 451.593 129.84 444.663C139.45 434.793 150.29 426.183 161.77 418.583C168.45 413.943 174.68 408.633 181.81 404.643Z" fill="#3D6CBD" stroke="#3D6CBD"/>
<path d="M1189.61 394.453C1209.76 389.803 1230.71 390.943 1251.05 393.683C1272.2 396.943 1291.71 406.243 1312.31 411.633C1321.38 413.993 1330.4 416.703 1339.74 417.843C1358.61 420.383 1376.64 426.843 1393.76 434.993C1408.95 441.333 1422.51 450.743 1436.39 459.453C1452.46 470.383 1469.84 479.463 1484.7 492.123C1497 502.103 1508.1 513.433 1520.32 523.523C1539.3 540.483 1558.53 557.553 1580.89 570.013C1598.57 580.413 1616.56 590.273 1634.35 600.483C1642.64 604.623 1650.06 610.393 1658.65 613.963C1646.22 624.003 1633.94 634.213 1621.98 644.793C1608 656.563 1593.15 667.253 1579.12 678.953C1571.65 684.883 1563.91 690.443 1556.21 696.043C1542.1 705.523 1527.5 714.273 1512.55 722.343C1503.6 727.423 1494.38 732.033 1485.68 737.543C1475.75 743.573 1466.28 750.363 1456.01 755.843C1442.79 763.633 1429.12 770.623 1415.15 776.973C1406.36 780.723 1397.19 783.483 1388.44 787.333C1371.75 794.073 1354.74 800.193 1338.8 808.623C1329.42 814.113 1320.01 819.643 1311.26 826.103C1284.24 847.353 1259.94 872.213 1230.6 890.433C1213.9 900.563 1195.86 908.163 1178.83 917.673C1164.18 925.873 1148.91 932.883 1133.37 939.213C1115.48 947.393 1097.07 954.533 1078.13 959.893C1066.94 962.553 1055.59 965.363 1044 965.023C1019.71 964.913 995.29 964.293 971.24 960.643C953.39 956.453 936.1 949.973 919.4 942.443C902.07 935.193 885.83 925.653 869.7 916.103C853.21 906.833 837.99 895.513 821.46 886.323C808.64 877.613 795.16 869.993 781.97 861.883C767.55 853.343 755.39 841.653 743.36 830.123C750.2 827.533 755.76 822.683 761.64 818.503C771.82 810.723 781.75 802.613 791.69 794.523C807.28 781.173 822.13 766.983 837.08 752.923C849.46 739.553 861.33 725.633 871.9 710.763C883.21 695.093 894.85 679.673 906.1 663.953C915.82 650.883 925.82 638.013 935.67 625.043C954.41 601.393 974.53 578.883 994.01 555.853C1005.19 542.423 1017.4 529.913 1029.53 517.363C1038.98 507.143 1048.09 496.603 1057.75 486.573C1070.83 472.993 1083.77 459.273 1097.09 445.913C1109.98 432.873 1124.62 421.603 1140.25 412.023C1155.29 402.793 1172.41 397.833 1189.61 394.453Z" fill="#102264" stroke="#102264"/>
<ellipse cx="1422" cy="147" rx="68" ry="67" fill="#FFF3B0"/>
</g>
<defs>
<linearGradient id="paint0_linear_2_2" x1="2088" y1="-598.818" x2="-91.4936" y2="-197.161" gradientUnits="userSpaceOnUse">
<stop stop-color="#E09F3E"/>
<stop offset="1" stop-color="#A23F7D"/>
</linearGradient>
<clipPath id="clip0_2_2">
<rect width="1920" height="1440" fill="white"/>
</clipPath>
</defs>
</svg>
