<svg width="1920" height="1440" viewBox="0 0 1920 1440" fill="none" xmlns="http://www.w3.org/2000/svg">
<g clip-path="url(#clip0_5_8)">
<rect width="1920" height="941" fill="url(#paint0_linear_5_8)"/>
<path d="M0 941H1920V1440H0V941Z" fill="#061036"/>
<path d="M1887.99 420C1873.69 420.202 1859.53 422.12 1845.43 423.987C1831.49 425.762 1818.27 430.002 1804.96 433.728C1795.75 436.504 1786.58 439.406 1777.68 442.829C1767.65 446.64 1758.57 451.914 1749.19 456.675C1733.25 464.776 1718.8 474.718 1704.48 484.686C1689.23 495.832 1673.64 506.649 1658.65 518.047C1646.22 526.492 1633.94 535.081 1621.98 543.98C1608 553.881 1593.15 562.873 1579.12 572.715C1571.65 577.703 1563.91 582.38 1556.21 587.091C1542.1 595.065 1527.5 602.425 1512.55 609.213C1503.6 613.487 1494.38 617.364 1485.68 621.999C1475.75 627.072 1466.28 632.783 1456.01 637.393C1442.79 643.945 1429.12 649.825 1415.15 655.167C1406.36 658.321 1397.19 660.643 1388.44 663.881C1371.75 669.551 1354.74 674.699 1338.8 681.79C1329.42 686.408 1320.01 691.06 1311.26 696.494C1284.24 714.368 1259.94 735.28 1230.6 750.606C1213.9 759.127 1195.86 765.52 1178.83 773.52C1164.18 780.417 1148.91 786.314 1133.37 791.639C1115.48 798.519 1097.07 804.525 1078.13 809.034C1066.94 811.272 1055.59 813.635 1044 813.349C1019.71 813.257 995.29 812.735 971.24 809.665C953.39 806.14 936.1 800.69 919.4 794.356C902.07 788.257 885.83 780.232 869.7 772.199C853.21 764.401 837.99 754.879 821.46 747.149C808.64 739.822 795.16 733.413 781.97 726.591C767.55 719.407 755.39 709.574 743.36 699.875C731.9 690.521 719.54 681.992 707.86 672.84C695.14 663.318 682.93 653.24 669 644.938C653.39 635.164 636.54 626.432 617.89 621.444C607.01 618.222 595.66 616.414 584.44 614.252C576.02 612.544 567.83 610.139 559.4 608.456C549.6 606.488 540.09 603.594 530.21 601.87C493.39 595.544 457.84 584.979 421.09 578.435C409.71 576.769 398.38 574.868 386.94 573.531C371.4 571.815 355.9 569.603 340.8 566.011C332.31 563.942 323.75 562.083 315.36 559.752C302.5 556.203 290.41 551.03 278.05 546.454C262.09 539.825 246.58 532.465 230.71 525.702C213.91 517.669 196.53 510.493 180.2 501.779C167.87 494.948 155.84 487.672 142.58 482.129C124.39 473.398 104.29 468.073 84.14 463.59C74.51 461.083 64.46 460.149 54.53 458.862C41.49 457.23 28.27 457.23 15.12 456.944C10.08 456.86 5.04 456.827 0 456.751V929.675V1079H1920V910.681V423.238C1909.45 421.506 1898.74 420.261 1887.99 420Z" fill="#061036" stroke="#061036"/>
<ellipse cx="1250" cy="219" rx="68" ry="67" fill="#FFF3B0"/>
</g>
<defs>
<linearGradient id="paint0_linear_5_8" x1="2088" y1="-598.818" x2="-91.4936" y2="-197.161" gradientUnits="userSpaceOnUse">
<stop stop-color="#E09F3E"/>
<stop offset="1" stop-color="#A23F7D"/>
</linearGradient>
<clipPath id="clip0_5_8">
<rect width="1920" height="1440" fill="white"/>
</clipPath>
</defs>
</svg>
